<?xml version="1.0" encoding="utf-8"?>
<!-- Generator: Adobe Illustrator 22.0.1, SVG Export Plug-In . SVG Version: 6.00 Build 0)  -->
<svg version="1.1" id="图层_1" xmlns="http://www.w3.org/2000/svg" xmlns:xlink="http://www.w3.org/1999/xlink" x="0px" y="0px"
	 viewBox="0 0 300 165.3" style="enable-background:new 0 0 300 165.3;" xml:space="preserve">
<style type="text/css">
	.st0{fill:#009360;}
	.st1{fill:#60C659;}
	.st2{fill:#88D7FF;}
	.st3{clip-path:url(#SVGID_2_);}
	.st4{fill:#185FAB;}
	.st5{fill:none;}
</style>
<polygon class="st0" points="60.7,45 0.3,143.3 121.1,143.3 "/>
<polygon class="st1" points="124.1,22.1 49.6,143.3 198.6,143.3 "/>
<rect x="117.9" y="51.5" class="st2" width="104.4" height="40.8"/>
<rect x="117.9" y="92.2" class="st2" width="182.1" height="41.2"/>
<g>
	<defs>
		<rect id="SVGID_1_" x="123.7" y="50.1" width="94.1" height="40.8"/>
	</defs>
	<clipPath id="SVGID_2_">
		<use xlink:href="#SVGID_1_"  style="overflow:visible;"/>
	</clipPath>
	<g class="st3">
		<path class="st4" d="M152.3,58.6l-4.5,21.2c-1.1,5.4-5.2,8.8-10.4,8.8c-5.6,0-8.9-3.4-8.9-8.3c0-0.8,0.1-1.8,0.3-2.7l0.2-0.9
			l6.3-1l-0.4,2c-0.1,0.4-0.2,1.3-0.2,1.6c0,1.5,0.9,3.1,3,3.1c1.9,0,3.2-1.5,3.6-3.5l4.3-20.3H152.3z"/>
		<path class="st4" d="M169,58c8,0,13.2,5.4,13.2,13.3c0,10.8-7.7,17.3-15.9,17.3c-7.8,0-13.1-5.4-13.1-13.4
			C153.2,64.4,160.9,58,169,58z M168.7,64.3c-4.3,0-8.8,3.7-8.8,10.6c0,4.4,2.5,7.3,6.7,7.3c4.3,0,8.8-3.8,8.8-10.7
			C175.5,67.2,173.1,64.3,168.7,64.3z"/>
		<path class="st4" d="M199.9,58.6c5.4,0,7.9,3,7.9,7.1c0,3.4-2.4,6.6-5.6,7.5c1.7,0.6,3.9,2.7,3.9,5.8c0,5.4-4.3,9.1-10.3,9.1
			h-12.3l6.2-29.4H199.9z M194.9,82.6c2.8,0,4.8-1.5,4.8-4c0-1.7-1.2-2.9-3.5-2.9h-3.7l-1.5,6.9H194.9z M197,70.4
			c2.5,0,4.3-1.4,4.3-3.7c0-1.7-1-2.7-3.4-2.7H195l-1.3,6.3H197z"/>
	</g>
</g>
<g>
	<path class="st4" d="M150,99.9l-4.5,21.2c-1.1,5.4-5.2,8.8-10.4,8.8c-5.6,0-8.9-3.4-8.9-8.3c0-0.8,0.1-1.8,0.3-2.7l0.2-0.9l6.3-1
		l-0.4,2c-0.1,0.4-0.2,1.3-0.2,1.6c0,1.5,0.9,3.1,3,3.1c1.9,0,3.2-1.5,3.6-3.5l4.3-20.3H150z"/>
	<path class="st4" d="M178.2,99.9l-4.2,20c-1.5,6.7-6.2,10.1-12,10.1c-6.4,0-10.6-3.9-10.6-9.7c0-1.3,0.2-2.3,0.5-3.8l3.4-16.6h6.6
		l-3.6,16.9c-0.2,1-0.3,1.9-0.3,2.5c0,2.4,1.3,4.2,4.5,4.2c2.6,0,4.4-1.6,5.1-4.8l3.9-18.8H178.2z"/>
	<path class="st4" d="M196.3,129.3l-7.8-19.3l-4.1,19.3h-6.5l6.2-29.4h7.5l7.1,17.9l3.8-17.9h6.6l-6.3,29.4H196.3z"/>
	<path class="st4" d="M217.1,116.2c0,4.5,2.4,7.7,7,7.7c4.1,0,6.4-2.2,7.3-4.7h-8.6l1.2-5.6h14.6l-3.3,15.7h-4.9v-2.9
		c-1.5,2-4.1,3.3-7.5,3.3c-7.6,0-12.5-5.5-12.5-13.2c0-10.8,7.7-17.2,15.9-17.2l0.2,0c8.4,0,12,5.1,12.7,9.2l-6.4,2
		c-0.4-2.2-2.1-4.9-6.7-4.9C221.7,105.5,217.1,109,217.1,116.2z"/>
	<path class="st4" d="M240.8,129.3l6.2-29.4h6.6l-4.9,23.2h12.5l-1.3,6.3H240.8z"/>
	<path class="st4" d="M264,129.3l6.2-29.4h18.6l-1.3,6.2h-12.1l-1.2,5.6h11l-1.2,5.8h-11l-1.2,5.6h12.1l-1.3,6.2H264z"/>
</g>
<rect x="118.7" y="92.2" class="st5" width="169.9" height="33.6"/>
<g>
</g>
<g>
</g>
<g>
</g>
<g>
</g>
<g>
</g>
<g>
</g>
</svg>
